<svg width="66" height="40" viewBox="0 0 66 40" fill="none" xmlns="http://www.w3.org/2000/svg">
<path d="M6 32L38 23L63 12" stroke="#13DF0F" stroke-opacity="0.74" stroke-width="2"/>
<path d="M6 32H46L60 25" stroke="#13DF0F" stroke-opacity="0.83" stroke-width="2"/>
<path d="M18.7803 7.62891C18.4261 8.16016 18.0055 8.6582 17.5186 9.12305C17.0316 9.58789 16.4948 9.9974 15.9082 10.3516C15.3327 10.7057 14.724 10.988 14.082 11.1982C13.4401 11.3975 12.7982 11.4971 12.1562 11.4971L11.7744 11.5303C11.3538 12.0615 11.0329 12.5762 10.8115 13.0742C10.5902 13.5723 10.4795 14.1589 10.4795 14.834V25.4424C10.4795 26.9144 10.1641 28.2259 9.5332 29.377C8.91341 30.5169 7.99479 31.502 6.77734 32.332L6.22949 31.7012C6.41764 31.4909 6.56706 31.2529 6.67773 30.9873C6.78841 30.7106 6.87142 30.4284 6.92676 30.1406C6.9821 29.8529 7.0153 29.5651 7.02637 29.2773C7.0485 28.9785 7.05957 28.6963 7.05957 28.4307V16.7598C7.05957 16.2396 7.16471 15.736 7.375 15.249C7.59635 14.751 7.87305 14.2806 8.20508 13.8379C8.53711 13.3952 8.90234 12.9801 9.30078 12.5928C9.71029 12.2054 10.1032 11.8512 10.4795 11.5303L4.98438 11.4971C4.5638 11.4971 4.1875 11.5413 3.85547 11.6299C3.53451 11.7074 3.23568 11.8236 2.95898 11.9785C2.68229 12.1335 2.41667 12.3271 2.16211 12.5596C1.90755 12.792 1.64746 13.0632 1.38184 13.373L0.900391 12.8584C1.26562 12.3604 1.67513 11.8346 2.12891 11.2812C2.59375 10.7279 3.0918 10.2243 3.62305 9.77051C4.16536 9.31673 4.74089 8.94043 5.34961 8.6416C5.9694 8.34277 6.61686 8.19336 7.29199 8.19336H14.4639C14.7516 8.19336 15.0726 8.17676 15.4268 8.14355C15.792 8.11035 16.1572 8.05501 16.5225 7.97754C16.8877 7.90007 17.2308 7.80046 17.5518 7.67871C17.8838 7.5459 18.1605 7.37988 18.3818 7.18066L18.7803 7.62891Z" fill="#F7D004"/>
<path d="M18.4364 22.82H20.3624L20.4344 24.35H20.5784C20.7344 23.714 20.9564 23.276 21.2444 23.036C21.5324 22.796 21.9224 22.676 22.4144 22.676V24.854C21.7424 24.854 21.2504 25.052 20.9384 25.448C20.6264 25.832 20.4704 26.528 20.4704 27.536V32H18.4364V22.82ZM24.7133 32.144C23.9933 32.144 23.4953 31.928 23.2193 31.496C22.9433 31.052 22.8053 30.338 22.8053 29.354C22.8053 28.658 22.8713 28.112 23.0033 27.716C23.1353 27.32 23.3513 27.032 23.6513 26.852C23.9633 26.672 24.3953 26.582 24.9473 26.582C25.3913 26.582 25.8773 26.606 26.4053 26.654V26.15C26.4053 25.586 26.3753 25.19 26.3153 24.962C26.2553 24.734 26.1293 24.584 25.9373 24.512C25.7453 24.44 25.4153 24.404 24.9473 24.404C24.4193 24.404 23.8313 24.446 23.1833 24.53V22.91C23.9153 22.754 24.7133 22.676 25.5773 22.676C26.3453 22.676 26.9333 22.79 27.3413 23.018C27.7493 23.234 28.0313 23.6 28.1873 24.116C28.3553 24.632 28.4393 25.364 28.4393 26.312V32H26.5133L26.4413 30.884H26.3153C26.2193 31.316 26.0213 31.634 25.7213 31.838C25.4333 32.042 25.0973 32.144 24.7133 32.144ZM25.4873 30.308C25.7033 30.308 25.8773 30.278 26.0093 30.218C26.1413 30.158 26.2373 30.032 26.2973 29.84C26.3693 29.528 26.4053 29.096 26.4053 28.544V27.986H25.5053C25.2053 27.986 25.0013 28.064 24.8933 28.22C24.7973 28.376 24.7493 28.7 24.7493 29.192C24.7493 29.624 24.7913 29.918 24.8753 30.074C24.9713 30.23 25.1753 30.308 25.4873 30.308ZM30.7856 32L29.0576 22.82H31.0916L32.1536 29.624H32.2976L33.2876 22.82H35.3036L33.5756 32H30.7856ZM36.2995 27.806V25.934H39.4315V27.806H36.2995ZM44.6611 26.87C44.6611 26.09 44.6431 25.55 44.6071 25.25C44.5831 24.938 44.5171 24.74 44.4091 24.656C44.3131 24.56 44.1331 24.512 43.8691 24.512C43.5811 24.512 43.3771 24.59 43.2571 24.746C43.1491 24.902 43.0831 25.16 43.0591 25.52C43.0351 25.868 43.0231 26.492 43.0231 27.392V32H40.9891V18.626H43.0231V23.864H43.1671C43.3951 23.072 43.9711 22.676 44.8951 22.676C45.4111 22.676 45.7951 22.784 46.0471 23C46.2991 23.204 46.4671 23.534 46.5511 23.99C46.6471 24.434 46.6951 25.07 46.6951 25.898V32H44.6611V26.87ZM53.4739 28.022H49.8919C49.8919 28.79 49.9159 29.33 49.9639 29.642C50.0239 29.942 50.1439 30.146 50.3239 30.254C50.5159 30.362 50.8459 30.416 51.3139 30.416C51.7339 30.416 52.3939 30.374 53.2939 30.29V31.892C53.0179 31.964 52.6519 32.024 52.1959 32.072C51.7399 32.12 51.2959 32.144 50.8639 32.144C49.9399 32.144 49.2619 31.988 48.8299 31.676C48.4099 31.364 48.1399 30.896 48.0199 30.272C47.9119 29.636 47.8579 28.688 47.8579 27.428C47.8579 26.168 47.9119 25.226 48.0199 24.602C48.1399 23.966 48.4039 23.486 48.8119 23.162C49.2319 22.838 49.8859 22.676 50.7739 22.676C51.6379 22.676 52.2559 22.826 52.6279 23.126C53.0119 23.426 53.2459 23.882 53.3299 24.494C53.4259 25.094 53.4739 26.066 53.4739 27.41V28.022ZM50.7559 24.404C50.4919 24.404 50.2999 24.452 50.1799 24.548C50.0719 24.632 49.9939 24.824 49.9459 25.124C49.9099 25.424 49.8919 25.922 49.8919 26.618H51.5659V26.528C51.5659 25.856 51.5479 25.382 51.5119 25.106C51.4759 24.818 51.4039 24.632 51.2959 24.548C51.1879 24.452 51.0079 24.404 50.7559 24.404ZM54.7 32V18.626H56.734V32H54.7ZM58.1454 22.82H60.0714L60.1434 23.918H60.2874C60.3834 23.462 60.5754 23.144 60.8634 22.964C61.1514 22.772 61.4874 22.676 61.8714 22.676C62.4234 22.676 62.8434 22.808 63.1314 23.072C63.4314 23.336 63.6414 23.804 63.7614 24.476C63.8814 25.136 63.9414 26.114 63.9414 27.41C63.9414 28.67 63.8874 29.636 63.7794 30.308C63.6714 30.968 63.4734 31.442 63.1854 31.73C62.8974 32.006 62.4714 32.144 61.9074 32.144C61.0434 32.144 60.5154 31.76 60.3234 30.992H60.1794V35.528H58.1454V22.82ZM61.0434 30.308C61.3314 30.308 61.5294 30.254 61.6374 30.146C61.7454 30.038 61.8174 29.798 61.8534 29.426C61.8894 29.054 61.9074 28.382 61.9074 27.41C61.9074 26.438 61.8894 25.766 61.8534 25.394C61.8174 25.022 61.7454 24.782 61.6374 24.674C61.5294 24.566 61.3314 24.512 61.0434 24.512C60.8154 24.512 60.6354 24.566 60.5034 24.674C60.3834 24.77 60.2994 24.962 60.2514 25.25C60.2154 25.442 60.1914 25.73 60.1794 26.114C60.1794 26.486 60.1794 26.918 60.1794 27.41C60.1794 28.502 60.2034 29.186 60.2514 29.462C60.3114 29.798 60.4014 30.026 60.5214 30.146C60.6414 30.254 60.8154 30.308 61.0434 30.308Z" fill="#FDEBFD"/>
</svg>
